<?xml version="1.0" encoding="iso-8859-1"?>
<!-- Uploaded to: SVG Repo, www.svgrepo.com, Generator: SVG Repo Mixer Tools -->
<svg height="800px" width="800px" version="1.1" id="Layer_1" xmlns="http://www.w3.org/2000/svg" xmlns:xlink="http://www.w3.org/1999/xlink" 
	 viewBox="0 0 512.001 512.001" xml:space="preserve">
<path style="fill:#EA0011;" d="M127.455,411.15l-84.996,84.996c-7.245,7.245-19.159,7.188-26.475-0.127l0,0
	c-7.315-7.315-7.373-19.229-0.127-26.475l84.996-84.996L127.455,411.15z"/>
<path style="fill:#ED732F;" d="M225.811,286.191c-28.477-28.477-50.068-63.671-62.439-101.781
	c-11.944-36.791-15.408-76.529-10.017-114.915c5.267-37.504,39.939-63.637,77.443-58.371c37.505,5.265,63.635,39.94,58.371,77.443
	c-5.245,37.354,7.008,74.038,33.619,100.649c26.611,26.611,63.295,38.864,100.646,33.618c37.504-5.264,72.176,20.865,77.444,58.37
	c5.267,37.504-20.865,72.176-58.369,77.444c-38.386,5.391-78.125,1.927-114.916-10.016
	C289.484,336.259,254.289,314.667,225.811,286.191z"/>
<path d="M511.227,279.749c-6.06-43.146-46.095-73.324-89.245-67.264c-0.861,0.121-1.72,0.225-2.581,0.325l68.84-68.839
	c4.08-4.08,4.08-10.696,0-14.777c-4.079-4.08-10.695-4.08-14.778,0l-83.16,83.16c-22.519-3.404-43.485-13.886-60.126-30.527
	c-16.642-16.642-27.124-37.606-30.528-60.127l83.16-83.161c4.08-4.08,4.08-10.696,0-14.777c-4.081-4.08-10.695-4.08-14.778,0
	l-68.839,68.839c0.1-0.861,0.205-1.722,0.326-2.585c6.057-43.151-24.119-83.185-67.266-89.242
	c-43.154-6.058-83.183,24.118-89.243,67.265c-5.609,39.946-2.004,81.301,10.427,119.595c4.004,12.334,8.937,24.373,14.722,36
	l-9.098,9.098c-30.638,30.638-32.928,79.028-6.918,112.349l-37.989,37.989l-5.912-5.912c-1.959-1.959-4.617-3.06-7.388-3.06
	c-2.771,0-5.428,1.101-7.388,3.06L8.466,462.154c-11.338,11.338-11.281,29.844,0.127,41.252c5.727,5.728,13.243,8.594,20.744,8.594
	c7.439,0,14.863-2.821,20.509-8.467l84.996-84.996c4.08-4.08,4.08-10.696,0-14.777l-5.913-5.913l37.989-37.989
	c15.3,11.943,33.766,17.939,52.245,17.939c21.767,0,43.534-8.286,60.105-24.857l9.096-9.097c11.627,5.785,23.667,10.719,36,14.722
	c26.562,8.622,54.593,12.998,82.612,12.998c12.374,0,24.748-0.854,36.985-2.573C487.111,362.933,517.285,322.899,511.227,279.749z
	 M35.069,488.757c-3.191,3.19-8.437,3.134-11.697-0.128s-3.318-8.508-0.127-11.699l77.608-77.608l5.91,5.91
	c0.001,0.001,0.002,0.002,0.002,0.003c0,0.001,0.002,0.002,0.002,0.002l5.911,5.911L35.069,488.757z M264.493,338.164
	c-24.993,24.993-65.66,24.995-90.655,0c-24.994-24.993-24.994-65.66,0-90.654l4.813-4.813
	c11.137,18.455,24.493,35.603,39.771,50.883c15.279,15.279,32.428,28.635,50.883,39.772L264.493,338.164z M441.056,348.298
	c-36.824,5.172-74.945,1.85-110.238-9.608c-36.546-11.863-70.302-32.571-97.618-59.889c-27.316-27.316-48.026-61.072-59.887-97.618
	c-11.458-35.295-14.781-73.413-9.61-110.236c4.074-29.01,29.026-50.046,57.524-50.046c2.678,0,5.392,0.186,8.12,0.568
	c31.737,4.455,53.933,33.902,49.477,65.642c-0.575,4.093-0.947,8.178-1.139,12.246l-36.345,8.155
	c-5.631,1.263-9.171,6.852-7.908,12.483c1.091,4.861,5.405,8.164,10.187,8.164c0.758,0,1.527-0.083,2.297-0.256l32.496-7.291
	c1.033,8.823,2.969,17.468,5.774,25.819l-24.228,11.411c-5.221,2.46-7.46,8.685-5.001,13.905c1.782,3.781,5.54,5.999,9.46,5.999
	c1.492,0,3.006-0.321,4.445-0.999l23.593-11.112c4.373,8.231,9.672,16.035,15.856,23.28l-15.762,15.763
	c-4.08,4.08-4.08,10.696,0,14.777c2.041,2.041,4.715,3.06,7.388,3.06s5.348-1.021,7.388-3.06l15.762-15.762
	c7.255,6.192,15.068,11.497,23.31,15.873l-11.117,23.603c-2.46,5.22-0.219,11.446,5.001,13.905c1.439,0.677,2.953,0.999,4.445,0.999
	c3.92,0,7.679-2.217,9.46-6l11.417-24.241c8.351,2.802,16.995,4.734,25.817,5.765l-7.296,32.519
	c-1.263,5.631,2.278,11.22,7.908,12.483c0.77,0.173,1.54,0.256,2.298,0.256c4.78,0,9.095-3.303,10.186-8.164l8.162-36.373
	c4.056-0.192,8.129-0.564,12.211-1.138c31.73-4.452,61.187,17.74,65.645,49.476C494.988,314.394,472.794,343.841,441.056,348.298z"
	/>
<path d="M313.215,291.295c-20.082-9.826-38.243-22.789-53.981-38.528c-22.367-22.367-39.325-50.006-49.038-79.93
	c-1.783-5.489-7.67-8.496-13.166-6.712c-5.489,1.782-8.494,7.676-6.712,13.164c10.729,33.048,29.449,63.565,54.139,88.255
	c17.373,17.373,37.416,31.68,59.573,42.522c1.479,0.723,3.044,1.066,4.585,1.066c3.865,0,7.581-2.154,9.393-5.859
	C320.545,300.09,318.399,293.832,313.215,291.295z"/>
<path d="M338.779,301.689c-5.342-1.523-10.99,1.424-12.765,6.748c-1.824,5.474,1.135,11.391,6.609,13.217
	c0.253,0.085,0.521,0.162,0.781,0.228c0.851,0.212,1.703,0.315,2.543,0.315c4.681,0,8.942-3.169,10.128-7.917
	C347.449,308.782,344.195,303.215,338.779,301.689z"/>
</svg>